<mxfile host="app.diagrams.net" modified="2021-12-06T14:38:02.613Z" agent="5.0 (Macintosh; Intel Mac OS X 10_15_6) AppleWebKit/605.1.15 (KHTML, like Gecko) Version/14.0.2 Safari/605.1.15" etag="7I9Jk2VyfiI2oq_COdCq" version="15.9.1" type="github">
  <diagram id="XGCCkTVCE6sSBGF_dYgc" name="Page-1">
    <mxGraphModel dx="946" dy="645" grid="1" gridSize="10" guides="1" tooltips="1" connect="1" arrows="1" fold="1" page="1" pageScale="1" pageWidth="827" pageHeight="1169" math="0" shadow="0">
      <root>
        <mxCell id="0" />
        <mxCell id="1" parent="0" />
        <mxCell id="Lex3ngpuYueUcGQ_zVxU-1" value="" style="endArrow=classic;html=1;rounded=1;shadow=0;labelBackgroundColor=#FFFFFF;sketch=0;fontColor=#CCCCFF;startSize=0;endSize=6;sourcePerimeterSpacing=0;strokeColor=#ae4132;fillColor=#fad9d5;edgeStyle=elbowEdgeStyle;elbow=vertical;exitX=0.5;exitY=0;exitDx=0;exitDy=0;" edge="1" parent="1" source="Lex3ngpuYueUcGQ_zVxU-27">
          <mxGeometry width="50" height="50" relative="1" as="geometry">
            <mxPoint x="544" y="380" as="sourcePoint" />
            <mxPoint x="304" y="390" as="targetPoint" />
            <Array as="points">
              <mxPoint x="424" y="340" />
            </Array>
          </mxGeometry>
        </mxCell>
        <mxCell id="Lex3ngpuYueUcGQ_zVxU-2" style="edgeStyle=orthogonalEdgeStyle;rounded=0;orthogonalLoop=1;jettySize=auto;html=1;strokeColor=#656565;fontColor=#1D3557;labelBackgroundColor=#F1FAEE;" edge="1" parent="1" target="Lex3ngpuYueUcGQ_zVxU-14">
          <mxGeometry relative="1" as="geometry">
            <mxPoint x="144" y="500" as="sourcePoint" />
          </mxGeometry>
        </mxCell>
        <mxCell id="Lex3ngpuYueUcGQ_zVxU-3" style="edgeStyle=orthogonalEdgeStyle;rounded=0;orthogonalLoop=1;jettySize=auto;html=1;strokeColor=#656565;fontColor=#1D3557;labelBackgroundColor=#F1FAEE;" edge="1" parent="1" source="Lex3ngpuYueUcGQ_zVxU-4" target="Lex3ngpuYueUcGQ_zVxU-20">
          <mxGeometry relative="1" as="geometry" />
        </mxCell>
        <mxCell id="Lex3ngpuYueUcGQ_zVxU-4" value="&lt;span style=&quot;color: rgb(0 , 0 , 0)&quot;&gt;$$x_3$$&lt;/span&gt;" style="rounded=1;whiteSpace=wrap;html=1;fillColor=#E0E5DF;strokeColor=#656565;fontColor=#1D3557;" vertex="1" parent="1">
          <mxGeometry x="359" y="500" width="50" height="30" as="geometry" />
        </mxCell>
        <mxCell id="Lex3ngpuYueUcGQ_zVxU-5" style="edgeStyle=orthogonalEdgeStyle;rounded=0;orthogonalLoop=1;jettySize=auto;html=1;strokeColor=#656565;fontColor=#1D3557;labelBackgroundColor=#F1FAEE;" edge="1" parent="1" source="Lex3ngpuYueUcGQ_zVxU-6" target="Lex3ngpuYueUcGQ_zVxU-27">
          <mxGeometry relative="1" as="geometry" />
        </mxCell>
        <mxCell id="Lex3ngpuYueUcGQ_zVxU-6" value="$$x_0$$" style="rounded=1;whiteSpace=wrap;html=1;fillColor=#D0CEE2;strokeColor=#656565;" vertex="1" parent="1">
          <mxGeometry x="519" y="500" width="50" height="30" as="geometry" />
        </mxCell>
        <mxCell id="Lex3ngpuYueUcGQ_zVxU-7" style="edgeStyle=orthogonalEdgeStyle;rounded=0;orthogonalLoop=1;jettySize=auto;html=1;strokeColor=#656565;fontColor=#1D3557;labelBackgroundColor=#F1FAEE;" edge="1" parent="1" source="Lex3ngpuYueUcGQ_zVxU-8" target="Lex3ngpuYueUcGQ_zVxU-18">
          <mxGeometry relative="1" as="geometry" />
        </mxCell>
        <mxCell id="Lex3ngpuYueUcGQ_zVxU-8" value="&lt;span style=&quot;color: rgb(0 , 0 , 0)&quot;&gt;$$x_2$$&lt;/span&gt;" style="rounded=1;whiteSpace=wrap;html=1;fillColor=#e0e5df;strokeColor=#656565;fontColor=#1D3557;" vertex="1" parent="1">
          <mxGeometry x="279" y="500" width="50" height="30" as="geometry" />
        </mxCell>
        <mxCell id="Lex3ngpuYueUcGQ_zVxU-9" style="edgeStyle=orthogonalEdgeStyle;rounded=0;orthogonalLoop=1;jettySize=auto;html=1;strokeColor=#656565;fontColor=#1D3557;labelBackgroundColor=#F1FAEE;" edge="1" parent="1" source="Lex3ngpuYueUcGQ_zVxU-10" target="Lex3ngpuYueUcGQ_zVxU-16">
          <mxGeometry relative="1" as="geometry" />
        </mxCell>
        <mxCell id="Lex3ngpuYueUcGQ_zVxU-10" value="&lt;span style=&quot;color: rgb(0 , 0 , 0)&quot;&gt;$$x_1$$&lt;/span&gt;" style="rounded=1;whiteSpace=wrap;html=1;fillColor=#e0e5df;strokeColor=#656565;fontColor=#1D3557;" vertex="1" parent="1">
          <mxGeometry x="199" y="500" width="50" height="30" as="geometry" />
        </mxCell>
        <mxCell id="Lex3ngpuYueUcGQ_zVxU-11" style="edgeStyle=orthogonalEdgeStyle;rounded=0;orthogonalLoop=1;jettySize=auto;html=1;strokeColor=#656565;fontColor=#1D3557;labelBackgroundColor=#F1FAEE;" edge="1" parent="1" source="Lex3ngpuYueUcGQ_zVxU-12" target="Lex3ngpuYueUcGQ_zVxU-24">
          <mxGeometry relative="1" as="geometry" />
        </mxCell>
        <mxCell id="Lex3ngpuYueUcGQ_zVxU-12" value="$$\Rightarrow$$" style="rounded=1;whiteSpace=wrap;html=1;fillColor=#c1cbd7;strokeColor=#656565;" vertex="1" parent="1">
          <mxGeometry x="449" y="500" width="30" height="30" as="geometry" />
        </mxCell>
        <mxCell id="Lex3ngpuYueUcGQ_zVxU-13" style="edgeStyle=orthogonalEdgeStyle;rounded=0;orthogonalLoop=1;jettySize=auto;html=1;strokeColor=#656565;fontColor=#1D3557;labelBackgroundColor=#F1FAEE;" edge="1" parent="1" source="Lex3ngpuYueUcGQ_zVxU-14" target="Lex3ngpuYueUcGQ_zVxU-16">
          <mxGeometry relative="1" as="geometry" />
        </mxCell>
        <mxCell id="Lex3ngpuYueUcGQ_zVxU-14" value="" style="rounded=1;whiteSpace=wrap;html=1;fillColor=#e0e5df;strokeColor=#656565;fontColor=#1D3557;" vertex="1" parent="1">
          <mxGeometry x="119" y="440" width="50" height="30" as="geometry" />
        </mxCell>
        <mxCell id="Lex3ngpuYueUcGQ_zVxU-15" style="edgeStyle=orthogonalEdgeStyle;rounded=0;orthogonalLoop=1;jettySize=auto;html=1;entryX=0;entryY=0.5;entryDx=0;entryDy=0;strokeColor=#656565;fontColor=#1D3557;labelBackgroundColor=#F1FAEE;" edge="1" parent="1" source="Lex3ngpuYueUcGQ_zVxU-16" target="Lex3ngpuYueUcGQ_zVxU-18">
          <mxGeometry relative="1" as="geometry" />
        </mxCell>
        <mxCell id="Lex3ngpuYueUcGQ_zVxU-16" value="" style="rounded=1;whiteSpace=wrap;html=1;fillColor=#e0e5df;strokeColor=#656565;fontColor=#1D3557;" vertex="1" parent="1">
          <mxGeometry x="199" y="440" width="50" height="30" as="geometry" />
        </mxCell>
        <mxCell id="Lex3ngpuYueUcGQ_zVxU-17" style="edgeStyle=orthogonalEdgeStyle;rounded=0;orthogonalLoop=1;jettySize=auto;html=1;entryX=0;entryY=0.5;entryDx=0;entryDy=0;strokeColor=#656565;fontColor=#1D3557;labelBackgroundColor=#F1FAEE;" edge="1" parent="1" source="Lex3ngpuYueUcGQ_zVxU-18" target="Lex3ngpuYueUcGQ_zVxU-20">
          <mxGeometry relative="1" as="geometry" />
        </mxCell>
        <mxCell id="Lex3ngpuYueUcGQ_zVxU-18" value="" style="rounded=1;whiteSpace=wrap;html=1;fillColor=#e0e5df;strokeColor=#656565;fontColor=#1D3557;" vertex="1" parent="1">
          <mxGeometry x="279" y="440" width="50" height="30" as="geometry" />
        </mxCell>
        <mxCell id="Lex3ngpuYueUcGQ_zVxU-19" style="edgeStyle=orthogonalEdgeStyle;rounded=0;orthogonalLoop=1;jettySize=auto;html=1;entryX=0;entryY=0.5;entryDx=0;entryDy=0;strokeColor=#656565;fontColor=#1D3557;labelBackgroundColor=#F1FAEE;" edge="1" parent="1" source="Lex3ngpuYueUcGQ_zVxU-20" target="Lex3ngpuYueUcGQ_zVxU-24">
          <mxGeometry relative="1" as="geometry" />
        </mxCell>
        <mxCell id="Lex3ngpuYueUcGQ_zVxU-20" value="" style="rounded=1;whiteSpace=wrap;html=1;fillColor=#e0e5df;strokeColor=#656565;fontColor=#1D3557;" vertex="1" parent="1">
          <mxGeometry x="359" y="440" width="50" height="30" as="geometry" />
        </mxCell>
        <mxCell id="Lex3ngpuYueUcGQ_zVxU-21" style="edgeStyle=orthogonalEdgeStyle;rounded=0;orthogonalLoop=1;jettySize=auto;html=1;entryX=0;entryY=0.5;entryDx=0;entryDy=0;strokeColor=#656565;fontColor=#1D3557;labelBackgroundColor=#F1FAEE;" edge="1" parent="1" source="Lex3ngpuYueUcGQ_zVxU-24" target="Lex3ngpuYueUcGQ_zVxU-27">
          <mxGeometry relative="1" as="geometry" />
        </mxCell>
        <mxCell id="Lex3ngpuYueUcGQ_zVxU-22" style="edgeStyle=orthogonalEdgeStyle;rounded=1;sketch=0;jumpStyle=none;orthogonalLoop=1;jettySize=auto;html=1;entryX=0.5;entryY=0;entryDx=0;entryDy=0;shadow=0;labelBackgroundColor=#FFFFFF;fontColor=#CCCCFF;startArrow=none;startFill=0;endArrow=classic;endFill=1;sourcePerimeterSpacing=-6;strokeColor=#ae4132;fillColor=#fad9d5;" edge="1" parent="1" source="Lex3ngpuYueUcGQ_zVxU-24" target="Lex3ngpuYueUcGQ_zVxU-14">
          <mxGeometry relative="1" as="geometry">
            <Array as="points">
              <mxPoint x="464" y="400" />
              <mxPoint x="144" y="400" />
            </Array>
          </mxGeometry>
        </mxCell>
        <mxCell id="Lex3ngpuYueUcGQ_zVxU-23" style="edgeStyle=orthogonalEdgeStyle;rounded=1;sketch=0;jumpStyle=none;orthogonalLoop=1;jettySize=auto;html=1;shadow=0;labelBackgroundColor=#FFFFFF;fontColor=#CCCCFF;startArrow=none;startFill=0;endArrow=none;endFill=0;sourcePerimeterSpacing=-6;strokeColor=#656565;fillColor=#A8DADC;" edge="1" parent="1" source="Lex3ngpuYueUcGQ_zVxU-24">
          <mxGeometry relative="1" as="geometry">
            <mxPoint x="152" y="400" as="targetPoint" />
            <Array as="points">
              <mxPoint x="464" y="400" />
            </Array>
          </mxGeometry>
        </mxCell>
        <mxCell id="Lex3ngpuYueUcGQ_zVxU-24" value="" style="rounded=1;whiteSpace=wrap;html=1;fillColor=#d0cee2;strokeColor=#56517e;" vertex="1" parent="1">
          <mxGeometry x="439" y="440" width="50" height="30" as="geometry" />
        </mxCell>
        <mxCell id="Lex3ngpuYueUcGQ_zVxU-25" style="edgeStyle=elbowEdgeStyle;rounded=1;sketch=0;orthogonalLoop=1;jettySize=auto;elbow=vertical;html=1;exitX=0.5;exitY=0;exitDx=0;exitDy=0;shadow=0;labelBackgroundColor=#FFFFFF;fontColor=#CCCCFF;startArrow=none;startFill=0;startSize=0;endSize=6;sourcePerimeterSpacing=-6;strokeColor=#656565;fillColor=#A8DADC;" edge="1" parent="1" source="Lex3ngpuYueUcGQ_zVxU-27">
          <mxGeometry relative="1" as="geometry">
            <mxPoint x="144" y="370" as="targetPoint" />
            <Array as="points">
              <mxPoint x="344" y="340" />
            </Array>
          </mxGeometry>
        </mxCell>
        <mxCell id="Lex3ngpuYueUcGQ_zVxU-26" style="edgeStyle=elbowEdgeStyle;rounded=1;sketch=0;orthogonalLoop=1;jettySize=auto;elbow=vertical;html=1;exitX=1;exitY=0.5;exitDx=0;exitDy=0;shadow=0;labelBackgroundColor=#FFFFFF;fontColor=#CCCCFF;startArrow=none;startFill=0;sourcePerimeterSpacing=-6;strokeColor=#656565;fillColor=#A8DADC;" edge="1" parent="1" source="Lex3ngpuYueUcGQ_zVxU-27" target="Lex3ngpuYueUcGQ_zVxU-34">
          <mxGeometry relative="1" as="geometry" />
        </mxCell>
        <mxCell id="Lex3ngpuYueUcGQ_zVxU-27" value="" style="rounded=1;whiteSpace=wrap;html=1;fillColor=#d0cee2;strokeColor=#56517e;" vertex="1" parent="1">
          <mxGeometry x="519" y="440" width="50" height="30" as="geometry" />
        </mxCell>
        <mxCell id="Lex3ngpuYueUcGQ_zVxU-28" value="" style="endArrow=classic;html=1;rounded=1;shadow=0;labelBackgroundColor=#FFFFFF;sketch=0;fontColor=#CCCCFF;startSize=0;endSize=6;sourcePerimeterSpacing=0;strokeColor=#656565;fillColor=#A8DADC;edgeStyle=elbowEdgeStyle;elbow=vertical;exitX=0.5;exitY=0;exitDx=0;exitDy=0;" edge="1" parent="1" source="Lex3ngpuYueUcGQ_zVxU-24">
          <mxGeometry width="50" height="50" relative="1" as="geometry">
            <mxPoint x="459" y="410" as="sourcePoint" />
            <mxPoint x="224" y="430" as="targetPoint" />
            <Array as="points">
              <mxPoint x="344" y="400" />
            </Array>
          </mxGeometry>
        </mxCell>
        <mxCell id="Lex3ngpuYueUcGQ_zVxU-29" value="" style="endArrow=classic;html=1;rounded=1;shadow=0;labelBackgroundColor=#FFFFFF;sketch=0;fontColor=#CCCCFF;startSize=0;endSize=6;sourcePerimeterSpacing=0;strokeColor=#656565;fillColor=#A8DADC;edgeStyle=elbowEdgeStyle;elbow=vertical;exitX=0.5;exitY=0;exitDx=0;exitDy=0;" edge="1" parent="1" source="Lex3ngpuYueUcGQ_zVxU-24">
          <mxGeometry width="50" height="50" relative="1" as="geometry">
            <mxPoint x="469" y="440" as="sourcePoint" />
            <mxPoint x="384" y="430" as="targetPoint" />
            <Array as="points">
              <mxPoint x="424" y="400" />
            </Array>
          </mxGeometry>
        </mxCell>
        <mxCell id="Lex3ngpuYueUcGQ_zVxU-30" value="" style="endArrow=classic;html=1;rounded=1;shadow=0;labelBackgroundColor=#FFFFFF;sketch=0;fontColor=#CCCCFF;startSize=0;endSize=6;sourcePerimeterSpacing=0;strokeColor=#656565;fillColor=#A8DADC;edgeStyle=elbowEdgeStyle;elbow=vertical;exitX=0.5;exitY=0;exitDx=0;exitDy=0;" edge="1" parent="1" source="Lex3ngpuYueUcGQ_zVxU-24">
          <mxGeometry width="50" height="50" relative="1" as="geometry">
            <mxPoint x="459" y="430" as="sourcePoint" />
            <mxPoint x="304" y="430" as="targetPoint" />
            <Array as="points">
              <mxPoint x="389" y="400" />
            </Array>
          </mxGeometry>
        </mxCell>
        <mxCell id="Lex3ngpuYueUcGQ_zVxU-31" style="edgeStyle=elbowEdgeStyle;rounded=1;sketch=0;orthogonalLoop=1;jettySize=auto;elbow=vertical;html=1;exitX=0.5;exitY=0;exitDx=0;exitDy=0;shadow=0;labelBackgroundColor=#FFFFFF;fontColor=#CCCCFF;startArrow=none;startFill=0;startSize=0;endSize=6;sourcePerimeterSpacing=-6;strokeColor=#ae4132;fillColor=#fad9d5;" edge="1" parent="1" source="Lex3ngpuYueUcGQ_zVxU-34">
          <mxGeometry relative="1" as="geometry">
            <mxPoint x="224" y="330" as="targetPoint" />
            <Array as="points">
              <mxPoint x="419" y="280" />
            </Array>
          </mxGeometry>
        </mxCell>
        <mxCell id="Lex3ngpuYueUcGQ_zVxU-32" style="edgeStyle=elbowEdgeStyle;rounded=1;sketch=0;orthogonalLoop=1;jettySize=auto;elbow=vertical;html=1;shadow=0;labelBackgroundColor=#FFFFFF;fontColor=#CCCCFF;startArrow=none;startFill=0;startSize=0;endSize=6;sourcePerimeterSpacing=-6;strokeColor=#656565;fillColor=#A8DADC;" edge="1" parent="1" source="Lex3ngpuYueUcGQ_zVxU-34">
          <mxGeometry relative="1" as="geometry">
            <mxPoint x="144" y="310" as="targetPoint" />
            <Array as="points">
              <mxPoint x="372" y="280" />
            </Array>
          </mxGeometry>
        </mxCell>
        <mxCell id="Lex3ngpuYueUcGQ_zVxU-33" style="edgeStyle=elbowEdgeStyle;rounded=1;sketch=0;orthogonalLoop=1;jettySize=auto;elbow=vertical;html=1;exitX=1;exitY=0.5;exitDx=0;exitDy=0;shadow=0;labelBackgroundColor=#FFFFFF;fontColor=#CCCCFF;startArrow=none;startFill=0;sourcePerimeterSpacing=-6;strokeColor=#656565;fillColor=#A8DADC;" edge="1" parent="1" source="Lex3ngpuYueUcGQ_zVxU-34" target="Lex3ngpuYueUcGQ_zVxU-36">
          <mxGeometry relative="1" as="geometry" />
        </mxCell>
        <mxCell id="Lex3ngpuYueUcGQ_zVxU-34" value="" style="rounded=1;whiteSpace=wrap;html=1;fillColor=#d0cee2;strokeColor=#56517e;" vertex="1" parent="1">
          <mxGeometry x="599" y="440" width="50" height="30" as="geometry" />
        </mxCell>
        <mxCell id="Lex3ngpuYueUcGQ_zVxU-35" style="edgeStyle=elbowEdgeStyle;rounded=1;sketch=0;orthogonalLoop=1;jettySize=auto;elbow=vertical;html=1;shadow=0;labelBackgroundColor=#FFFFFF;fontColor=#CCCCFF;startArrow=none;startFill=0;startSize=0;endSize=6;sourcePerimeterSpacing=-6;strokeColor=#656565;fillColor=#A8DADC;" edge="1" parent="1" source="Lex3ngpuYueUcGQ_zVxU-36">
          <mxGeometry relative="1" as="geometry">
            <mxPoint x="144" y="250" as="targetPoint" />
            <Array as="points">
              <mxPoint x="419" y="220" />
            </Array>
          </mxGeometry>
        </mxCell>
        <mxCell id="Lex3ngpuYueUcGQ_zVxU-36" value="" style="rounded=1;whiteSpace=wrap;html=1;fillColor=#d0cee2;strokeColor=#56517e;" vertex="1" parent="1">
          <mxGeometry x="679" y="440" width="50" height="30" as="geometry" />
        </mxCell>
        <mxCell id="Lex3ngpuYueUcGQ_zVxU-37" value="$$x_2$$" style="rounded=1;whiteSpace=wrap;html=1;fillColor=#d0cee2;strokeColor=#56517e;" vertex="1" parent="1">
          <mxGeometry x="599" y="500" width="50" height="30" as="geometry" />
        </mxCell>
        <mxCell id="Lex3ngpuYueUcGQ_zVxU-38" value="$$x_1$$" style="rounded=1;whiteSpace=wrap;html=1;fillColor=#d0cee2;strokeColor=#56517e;" vertex="1" parent="1">
          <mxGeometry x="679" y="500" width="50" height="30" as="geometry" />
        </mxCell>
        <mxCell id="Lex3ngpuYueUcGQ_zVxU-39" style="edgeStyle=orthogonalEdgeStyle;curved=0;rounded=1;sketch=0;orthogonalLoop=1;jettySize=auto;html=1;labelBackgroundColor=#FFFFFF;fontColor=#CCCCFF;strokeColor=#656565;fillColor=#A8DADC;sourcePerimeterSpacing=-1;" edge="1" parent="1">
          <mxGeometry relative="1" as="geometry">
            <mxPoint x="544" y="380" as="sourcePoint" />
            <mxPoint x="224" y="370" as="targetPoint" />
            <Array as="points">
              <mxPoint x="544" y="340" />
              <mxPoint x="224" y="340" />
            </Array>
          </mxGeometry>
        </mxCell>
        <mxCell id="Lex3ngpuYueUcGQ_zVxU-40" style="edgeStyle=orthogonalEdgeStyle;curved=0;rounded=1;sketch=0;orthogonalLoop=1;jettySize=auto;html=1;labelBackgroundColor=#FFFFFF;fontColor=#CCCCFF;strokeColor=#656565;fillColor=#A8DADC;" edge="1" parent="1">
          <mxGeometry relative="1" as="geometry">
            <mxPoint x="624" y="320" as="sourcePoint" />
            <mxPoint x="304" y="310" as="targetPoint" />
            <Array as="points">
              <mxPoint x="624" y="280" />
              <mxPoint x="304" y="280" />
            </Array>
          </mxGeometry>
        </mxCell>
        <mxCell id="Lex3ngpuYueUcGQ_zVxU-41" value="" style="endArrow=classic;html=1;rounded=1;shadow=0;labelBackgroundColor=#FFFFFF;sketch=0;fontColor=#CCCCFF;startSize=0;endSize=6;sourcePerimeterSpacing=0;strokeColor=#656565;fillColor=#A8DADC;edgeStyle=elbowEdgeStyle;elbow=vertical;exitX=0.5;exitY=0;exitDx=0;exitDy=0;" edge="1" parent="1" source="Lex3ngpuYueUcGQ_zVxU-34">
          <mxGeometry width="50" height="50" relative="1" as="geometry">
            <mxPoint x="624" y="320" as="sourcePoint" />
            <mxPoint x="384" y="310" as="targetPoint" />
            <Array as="points">
              <mxPoint x="559" y="280" />
              <mxPoint x="504" y="280" />
            </Array>
          </mxGeometry>
        </mxCell>
        <mxCell id="Lex3ngpuYueUcGQ_zVxU-42" style="edgeStyle=elbowEdgeStyle;rounded=1;sketch=0;orthogonalLoop=1;jettySize=auto;elbow=vertical;html=1;entryX=0.5;entryY=0;entryDx=0;entryDy=0;shadow=0;labelBackgroundColor=#FFFFFF;fontColor=#CCCCFF;startArrow=classicThin;startFill=1;startSize=0;endSize=6;sourcePerimeterSpacing=0;strokeColor=#656565;fillColor=#A8DADC;" edge="1" parent="1" source="Lex3ngpuYueUcGQ_zVxU-37" target="Lex3ngpuYueUcGQ_zVxU-37">
          <mxGeometry relative="1" as="geometry" />
        </mxCell>
        <mxCell id="Lex3ngpuYueUcGQ_zVxU-43" style="edgeStyle=orthogonalEdgeStyle;rounded=0;orthogonalLoop=1;jettySize=auto;html=1;strokeColor=#656565;fontColor=#1D3557;labelBackgroundColor=#F1FAEE;" edge="1" parent="1">
          <mxGeometry relative="1" as="geometry">
            <mxPoint x="623.5" y="500" as="sourcePoint" />
            <mxPoint x="623.5" y="470" as="targetPoint" />
          </mxGeometry>
        </mxCell>
        <mxCell id="Lex3ngpuYueUcGQ_zVxU-44" style="edgeStyle=orthogonalEdgeStyle;rounded=0;orthogonalLoop=1;jettySize=auto;html=1;strokeColor=#656565;fontColor=#1D3557;labelBackgroundColor=#F1FAEE;" edge="1" parent="1">
          <mxGeometry relative="1" as="geometry">
            <mxPoint x="703.5" y="500" as="sourcePoint" />
            <mxPoint x="703.5" y="470" as="targetPoint" />
          </mxGeometry>
        </mxCell>
        <mxCell id="Lex3ngpuYueUcGQ_zVxU-45" value="" style="endArrow=classic;html=1;rounded=1;shadow=0;labelBackgroundColor=#FFFFFF;sketch=0;fontColor=#CCCCFF;startSize=0;endSize=6;sourcePerimeterSpacing=0;strokeColor=#656565;fillColor=#A8DADC;edgeStyle=elbowEdgeStyle;elbow=vertical;exitX=0.5;exitY=0;exitDx=0;exitDy=0;" edge="1" parent="1" source="Lex3ngpuYueUcGQ_zVxU-36">
          <mxGeometry width="50" height="50" relative="1" as="geometry">
            <mxPoint x="464" y="260" as="sourcePoint" />
            <mxPoint x="224" y="250" as="targetPoint" />
            <Array as="points">
              <mxPoint x="344" y="220" />
            </Array>
          </mxGeometry>
        </mxCell>
        <mxCell id="Lex3ngpuYueUcGQ_zVxU-46" value="" style="endArrow=classic;html=1;rounded=1;shadow=0;labelBackgroundColor=#FFFFFF;sketch=0;fontColor=#CCCCFF;startSize=0;endSize=6;sourcePerimeterSpacing=0;strokeColor=#ae4132;fillColor=#fad9d5;edgeStyle=elbowEdgeStyle;elbow=vertical;exitX=0.5;exitY=0;exitDx=0;exitDy=0;" edge="1" parent="1" source="Lex3ngpuYueUcGQ_zVxU-36">
          <mxGeometry width="50" height="50" relative="1" as="geometry">
            <mxPoint x="464" y="260" as="sourcePoint" />
            <mxPoint x="384" y="270" as="targetPoint" />
            <Array as="points">
              <mxPoint x="424" y="220" />
            </Array>
          </mxGeometry>
        </mxCell>
        <mxCell id="Lex3ngpuYueUcGQ_zVxU-47" value="" style="endArrow=classic;html=1;rounded=1;shadow=0;labelBackgroundColor=#FFFFFF;sketch=0;fontColor=#CCCCFF;startSize=0;endSize=6;sourcePerimeterSpacing=0;strokeColor=#656565;fillColor=#A8DADC;edgeStyle=elbowEdgeStyle;elbow=vertical;exitX=0.5;exitY=0;exitDx=0;exitDy=0;" edge="1" parent="1" source="Lex3ngpuYueUcGQ_zVxU-36">
          <mxGeometry width="50" height="50" relative="1" as="geometry">
            <mxPoint x="464" y="260" as="sourcePoint" />
            <mxPoint x="304" y="250" as="targetPoint" />
            <Array as="points">
              <mxPoint x="389" y="220" />
            </Array>
          </mxGeometry>
        </mxCell>
        <mxCell id="Lex3ngpuYueUcGQ_zVxU-48" value="" style="endArrow=classic;html=1;rounded=1;shadow=0;labelBackgroundColor=#FFFFFF;sketch=0;fontColor=#CCCCFF;startSize=0;endSize=6;sourcePerimeterSpacing=0;strokeColor=#656565;fillColor=#A8DADC;edgeStyle=elbowEdgeStyle;elbow=vertical;exitX=0.5;exitY=0;exitDx=0;exitDy=0;" edge="1" parent="1">
          <mxGeometry width="50" height="50" relative="1" as="geometry">
            <mxPoint x="544" y="380" as="sourcePoint" />
            <mxPoint x="384" y="370" as="targetPoint" />
            <Array as="points">
              <mxPoint x="469" y="340" />
            </Array>
          </mxGeometry>
        </mxCell>
        <mxCell id="Lex3ngpuYueUcGQ_zVxU-49" value="&lt;span style=&quot;color: rgb(0 , 0 , 0)&quot;&gt;$$x_0$$&lt;/span&gt;" style="rounded=1;whiteSpace=wrap;html=1;fillColor=#e0e5df;strokeColor=#656565;fontColor=#1D3557;" vertex="1" parent="1">
          <mxGeometry x="119" y="500" width="50" height="30" as="geometry" />
        </mxCell>
        <mxCell id="Lex3ngpuYueUcGQ_zVxU-50" value="$$x_0$$" style="text;html=1;strokeColor=none;fillColor=none;align=center;verticalAlign=middle;whiteSpace=wrap;rounded=0;labelBackgroundColor=none;sketch=0;fontColor=default;" vertex="1" parent="1">
          <mxGeometry x="119" y="420" width="20" height="10" as="geometry" />
        </mxCell>
        <mxCell id="Lex3ngpuYueUcGQ_zVxU-51" value="$$x_2$$" style="text;html=1;strokeColor=none;fillColor=none;align=center;verticalAlign=middle;whiteSpace=wrap;rounded=0;labelBackgroundColor=none;sketch=0;fontColor=default;" vertex="1" parent="1">
          <mxGeometry x="279" y="360" width="20" height="20" as="geometry" />
        </mxCell>
        <mxCell id="Lex3ngpuYueUcGQ_zVxU-52" value="$$x_1$$" style="text;html=1;strokeColor=none;fillColor=none;align=center;verticalAlign=middle;whiteSpace=wrap;rounded=0;labelBackgroundColor=none;sketch=0;fontColor=default;" vertex="1" parent="1">
          <mxGeometry x="199" y="300" width="20" height="20" as="geometry" />
        </mxCell>
        <mxCell id="Lex3ngpuYueUcGQ_zVxU-53" value="$$x_3$$" style="text;html=1;strokeColor=none;fillColor=none;align=center;verticalAlign=middle;whiteSpace=wrap;rounded=0;labelBackgroundColor=none;sketch=0;fontColor=default;" vertex="1" parent="1">
          <mxGeometry x="359" y="240" width="20" height="20" as="geometry" />
        </mxCell>
      </root>
    </mxGraphModel>
  </diagram>
</mxfile>
